<?xml version="1.0" encoding="UTF-8"?>
<!DOCTYPE svg PUBLIC "-//W3C//DTD SVG 1.1//EN" "http://www.w3.org/Graphics/SVG/1.1/DTD/svg11.dtd">
<!-- Creator: CorelDRAW X5 -->
<svg xmlns="http://www.w3.org/2000/svg" xml:space="preserve" width="5.90656in" height="5.93719in" style="shape-rendering:geometricPrecision; text-rendering:geometricPrecision; image-rendering:optimizeQuality; fill-rule:evenodd; clip-rule:evenodd"
viewBox="0 0 5.90443 5.93504"
 xmlns:xlink="http://www.w3.org/1999/xlink">
 <defs>
  <style type="text/css">
   <![CDATA[
    .fil0 {fill:#FEFEFE}
   ]]>
  </style>
 </defs>
 <g id="Layer_x0020_1">
  <metadata id="CorelCorpID_0Corel-Layer"/>
  <g id="_695377168">
   <path id="_664181112" class="fil0" d="M2.74057 0.0250185c-1.55769,0.135447 -2.8153,1.40836 -2.73711,3.01225 0.079853,1.63727 1.45619,2.88057 3.07418,2.89756 4.02931,0.0424217 3.6029,-6.38405 -0.337063,-5.90981zm0.349232 5.67536c-1.49405,0.00370339 -2.76041,-1.16012 -2.85113,-2.65601 -0.0882004,-1.45537 1.05479,-2.65889 2.47884,-2.78272 3.64579,-0.438794 4.12819,5.42979 0.372287,5.43874z"/>
   <g>
    <path id="_695374888" class="fil0" d="M4.43158 4.66c-0.0795028,-0.0829149 -0.156778,-0.167967 -0.236249,-0.250913 0.179935,-0.207512 0.390284,-0.379032 0.578126,-0.579401 0.0386947,-0.0413237 0.0761497,-0.0837847 0.11621,-0.123766 0.0227319,-0.0226887 0.0727847,-0.0632685 0.0696756,-0.063422 0.0474041,0.00238103 0.220027,0.181836 0.255557,0.217843 0.0145853,0.0170686 -0.604856,0.661218 -0.783319,0.79966zm-0.320923 -0.462176c0.000503755,-0.0229996 0.0519222,-0.0638667 0.0759922,-0.0900383 0.0813328,-0.0883618 0.162799,-0.176716 0.24869,-0.260717 0.0910222,-0.0890702 0.186712,-0.172339 0.28755,-0.250154 0.0540986,-0.0417881 0.0497734,-0.0240031 0.0880115,0.0197015 -0.0839539,0.0807622 -0.158132,0.183918 -0.232479,0.256931 -0.137006,0.134479 -0.276817,0.257387 -0.405873,0.396731 -0.0247903,-0.0267384 -0.0620052,-0.0677196 -0.061891,-0.0724541zm-0.0246171 -0.154393c-0.148561,-0.143259 -0.284633,-0.234561 -0.493448,-0.269934 -0.353128,-0.0598012 -0.785846,-0.220554 -0.658975,-0.642949 0.0603325,0.0595966 0.12087,0.118973 0.180982,0.178581 0.0501039,0.0496868 0.127635,-0.0277223 0.0774602,-0.0774759 -0.237446,-0.235553 -0.467186,-0.478064 -0.702187,-0.715749 -0.102286,-0.103498 -0.262783,-0.216095 -0.333557,-0.343691 -0.0444092,-0.0800695 -0.0541615,-0.162024 0.0542639,-0.168785 0.0689239,-0.00429372 0.0887042,0.014483 0.137679,0.0567708 0.0412331,0.0355777 0.0779994,0.0761772 0.116674,0.11447 0.190164,0.188278 0.361865,0.393283 0.560557,0.572864 0.0294106,0.0265534 0.0814076,0.0177456 0.0915614,-0.0241802 0.0253412,-0.108787 0.100971,-0.137801 0.226993,-0.0870591 0.0383956,0.0316342 0.0882713,0.00985471 0.0935292,-0.038734 0.0261913,-0.115962 0.105245,-0.132649 0.237151,-0.0501158 0.0283402,0.0294224 0.0814784,0.0154472 0.091589,-0.0241606 0.0611708,-0.240161 0.331951,0.0740048 0.39137,0.1386 0.091955,0.100011 0.167876,0.210896 0.212648,0.340605 0.0679046,0.196819 0.108091,0.377289 0.232849,0.5489 -0.00558853,0.00486832 -0.0109213,0.00947296 -0.0160336,0.0135502 -0.079979,0.0641619 -0.156011,0.132948 -0.229272,0.204654 -0.0656062,0.0642248 -0.12865,0.131043 -0.191132,0.198291 -0.0198157,0.0213545 -0.050466,0.0474632 -0.0807031,0.0755475zm1.21534 -0.248599c-0.00236135,-0.00410875 -0.00521859,-0.00811518 -0.00898494,-0.011976 -0.089448,-0.0905893 -0.199023,-0.188227 -0.305728,-0.257057 -0.0167499,-0.0108701 -0.0383129,-0.00893378 -0.055291,0 -0.0121531,0.00638746 -0.0240346,0.0138218 -0.0357942,0.0216379 -0.0459322,-0.0470106 -0.0909632,-0.105848 -0.159986,-0.0901249 -0.0157974,0.00361287 -0.0320593,0.0123695 -0.0481991,0.0233026 -0.105537,-0.151973 -0.149655,-0.31371 -0.204985,-0.489048 -0.0503637,-0.159616 -0.143704,-0.296546 -0.257202,-0.417215 -0.0830605,-0.0883027 -0.195378,-0.238032 -0.324721,-0.255597 -0.0874645,-0.0119051 -0.164263,0.0338067 -0.208236,0.102711 -0.126458,-0.0779482 -0.284405,-0.0410757 -0.342872,0.0938991 -0.114813,-0.0483959 -0.241208,-0.0089141 -0.305366,0.0991099 -0.225753,-0.219665 -0.416857,-0.48904 -0.669864,-0.674792 -0.178432,-0.131012 -0.456741,-0.0123066 -0.346957,0.22719 0.0741268,0.161603 0.24368,0.282398 0.365769,0.40668 0.0862602,0.0878462 0.172729,0.174106 0.255884,0.264849 0.064823,0.0707343 0.132015,0.139489 0.199904,0.207594 -0.106229,0.300698 0.00518317,0.592908 0.308141,0.724396 0.155027,0.0672434 0.31907,0.0915299 0.483841,0.121366 0.151382,0.0273681 0.264538,0.126226 0.371689,0.232093 -0.0093785,0.0137785 -0.0165098,0.0274665 -0.0200912,0.0407569 -0.01906,0.070628 0.0551415,0.138123 0.106674,0.188589 -0.00545472,0.00641501 -0.0110669,0.0125663 -0.0164389,0.0190758 -0.0190049,0.0230035 -0.0223069,0.0546889 0,0.0774838 0.102825,0.104935 0.199912,0.215131 0.302635,0.32018 0.0181981,0.0186232 0.0442635,0.0189538 0.066354,0.00858351 0.10983,-0.0517097 0.198806,-0.165972 0.280387,-0.252129 0.100558,-0.106229 0.199467,-0.210121 0.305409,-0.311081 0.0789911,-0.075276 0.360622,-0.277892 0.264031,-0.420478z"/>
    <path id="_695375008" class="fil0" d="M4.48749 4.42168c-0.0129992,0.016986 -0.0356092,0.0241291 -0.0546771,0.0133613 -0.0291706,-0.0165491 -0.0153724,-0.0475025 -0.000692663,-0.0690971 0.0139635,-0.0192529 0.0417802,-0.0319766 0.0561372,-0.0082608 0.0117713,0.0194221 0.0135817,0.0452159 -0.000767439,0.0639966zm-0.119882 -0.104761c-0.0022787,0.00217244 -0.00447083,0.00465973 -0.00640713,0.00754845 -0.00211341,0.00284543 -0.00364435,0.00568299 -0.00485651,0.00850874 -0.0344206,0.0578216 -0.0301663,0.131661 0.0311502,0.170513 0.0580735,0.0367702 0.133991,0.0158565 0.170946,-0.0403319 0.0362428,-0.05511 0.0241409,-0.133983 -0.0242826,-0.178101 -0.0525794,-0.0478882 -0.126643,-0.0162736 -0.16655,0.0318625z"/>
    <path id="_695374984" class="fil0" d="M2.74705 2.05307c0.0500292,-0.461947 -0.564702,-0.58334 -0.84538,-0.318243 -0.313292,0.295854 -0.174964,0.931585 0.321797,0.88021 0.0520875,-0.00539175 0.0526699,-0.0876061 0,-0.0821593 -0.427188,0.0441494 -0.527691,-0.49468 -0.2637,-0.739957 0.233616,-0.217095 0.747281,-0.12919 0.705107,0.260162 -0.00569086,0.0525125 0.0764999,0.0521111 0.082175,-1.18068e-005z"/>
    <path id="_695375128" class="fil0" d="M2.36009 2.68529c-0.208326,0.0840562 -0.468394,0.00222754 -0.619355,-0.157955 -0.227583,-0.241413 -0.142283,-0.662524 0.063973,-0.885739 0.201738,-0.218307 0.517112,-0.261858 0.777707,-0.120307 0.235399,0.127895 0.398273,0.475702 0.254613,0.721381 -0.0267266,0.0457354 0.0442242,0.0871417 0.0709507,0.0414811 0.155578,-0.266124 0.019245,-0.624656 -0.221743,-0.79489 -0.275782,-0.194831 -0.660734,-0.172981 -0.905047,0.0589 -0.246899,0.234321 -0.352436,0.662048 -0.157427,0.962932 0.150461,0.232188 0.499068,0.357985 0.758132,0.25344 0.0484667,-0.019552 0.0272461,-0.0990548 -0.0218031,-0.079243z"/>
    <path id="_695375032" class="fil0" d="M4.92871 3.80635c-0.0267187,-0.0456213 -0.0977954,-0.00428585 -0.070994,0.0414693 0.0226808,0.0386829 0.0453222,0.0773894 0.068003,0.116072 0.0266951,0.0456016 0.09776,0.00428585 0.0709507,-0.0414693 -0.0226611,-0.0387144 -0.0453222,-0.0773894 -0.0679597,-0.116072z"/>
    <path id="_695375056" class="fil0" d="M5.04763 3.78778c-0.00905972,-0.0202486 -0.0385412,-0.02505 -0.0562238,-0.0147309 -0.0208271,0.0122043 -0.0238064,0.0358807 -0.0147191,0.0562198 0.0170411,0.0380729 0.0340074,0.0761575 0.0510249,0.11423 0.00906759,0.0202486 0.0385294,0.0250736 0.0562002,0.0147427 0.0208665,-0.0122161 0.0238064,-0.0358689 0.0147506,-0.0562198 -0.0169978,-0.0380729 -0.0340271,-0.0761575 -0.0510327,-0.114242z"/>
   </g>
  </g>
 </g>
</svg>
