<?xml version="1.0" encoding="UTF-8" standalone="no"?>
<!-- Created with Inkscape (http://www.inkscape.org/) -->

<svg
   xmlns:dc="http://purl.org/dc/elements/1.1/"
   xmlns:cc="http://creativecommons.org/ns#"
   xmlns:rdf="http://www.w3.org/1999/02/22-rdf-syntax-ns#"
   xmlns:svg="http://www.w3.org/2000/svg"
   xmlns="http://www.w3.org/2000/svg"
   xmlns:sodipodi="http://sodipodi.sourceforge.net/DTD/sodipodi-0.dtd"
   xmlns:inkscape="http://www.inkscape.org/namespaces/inkscape"
   width="9.5498896mm"
   height="11.573305mm"
   viewBox="0 0 9.5498896 11.573305"
   version="1.1"
   id="svg8"
   inkscape:version="0.92.1 r15371"
   sodipodi:docname="camera.svg">
  <defs
     id="defs2" />
  <sodipodi:namedview
     id="base"
     pagecolor="#ffffff"
     bordercolor="#666666"
     borderopacity="1.0"
     inkscape:pageopacity="0.0"
     inkscape:pageshadow="2"
     inkscape:zoom="3.959798"
     inkscape:cx="-11.082155"
     inkscape:cy="4.0145366"
     inkscape:document-units="mm"
     inkscape:current-layer="layer1"
     showgrid="false"
     fit-margin-top="0"
     fit-margin-left="0"
     fit-margin-right="0"
     fit-margin-bottom="0"
     inkscape:window-width="1366"
     inkscape:window-height="715"
     inkscape:window-x="-8"
     inkscape:window-y="-8"
     inkscape:window-maximized="1" />
  <metadata
     id="metadata5">
    <rdf:RDF>
      <cc:Work
         rdf:about="">
        <dc:format>image/svg+xml</dc:format>
        <dc:type
           rdf:resource="http://purl.org/dc/dcmitype/StillImage" />
        <dc:title></dc:title>
      </cc:Work>
    </rdf:RDF>
  </metadata>
  <g
     inkscape:label="Layer 1"
     inkscape:groupmode="layer"
     id="layer1"
     transform="translate(-54.189341,-146.8474)">
    <g
       transform="matrix(1,0,0,0.8872997,-38.553571,-3.5729483)"
       id="layer1-6"
       inkscape:label="Layer 1"
       style="fill:#000000">
      <g
         transform="matrix(0.11572447,0,0,0.13041755,92.741916,169.5261)"
         id="g22"
         style="fill:#000000">
        <path
           inkscape:connector-curvature="0"
           id="camera-body"
           d="M 51.5625,0 C 50.667739,-0.00962983 49.756943,0.05800477 48.84375,0.1875 41.018415,1.2971691 35.117198,7.3376842 33.8125,14.71875 30.504071,7.9918491 23.138091,3.8277945 15.3125,4.9375 5.573576,6.3185261 -1.1937811,15.321773 0.1875,25.0625 c 0.843265,5.94666 4.5370026,10.788208 9.5,13.34375 l 0.90625,6.4375 30.625,-4.34375 c 1.399684,-0.198528 2.747987,0.601389 2.9375,1.9375 0.18951,1.336112 -0.881566,2.520223 -2.28125,2.71875 L 11.25,49.5 l 1.15625,8.1875 c 0.186855,1.317685 1.430768,2.249579 2.75,2.0625 L 64.25,52.78125 c 1.317815,-0.186873 2.249355,-1.432313 2.0625,-2.75 l -2.75,-19.25 C 67.618077,26.946961 69.843395,21.259142 69,15.3125 67.748216,6.4849658 60.211858,0.09304631 51.5625,0 Z M 51.28125,3.75 C 58.168631,3.650611 64.22589,8.6859174 65.21875,15.6875 66.295328,23.279482 61.029156,30.329715 53.4375,31.40625 45.84552,32.482829 38.795329,27.18573 37.71875,19.59375 36.641441,11.998855 41.938942,4.9828747 49.53125,3.90625 50.124347,3.822146 50.697574,3.7584222 51.28125,3.75 Z M 17.5625,8.53125 C 24.449868,8.4318561 30.507144,13.46718 31.5,20.46875 32.576577,28.060719 27.310389,35.110969 19.71875,36.1875 12.126783,37.264077 5.0765804,31.966969 4,24.375 2.9226914,16.780121 8.2202041,9.7641225 15.8125,8.6875 c 0.593098,-0.084105 1.166324,-0.1478286 1.75,-0.15625 z m 62.15625,18.9375 -12.78125,6.1875 1.59375,11.15625 14,2.40625 z m -38,13.59375 c -0.135989,-0.0042 -0.296572,0.01126 -0.4375,0.03125 l -33.125,4.6875 -0.25,-1.6875 L 2.78125,43.9375 4,52.53125 8.875,50.9375 8.625,49.25 41.78125,44.5625 c 1.127423,-0.15991 1.917803,-1.068504 1.78125,-2.03125 -0.119486,-0.842403 -0.891829,-1.439004 -1.84375,-1.46875 z M 51.53125,57.21875 28.625,60.4375 c 1.17e-4,2.842015 5.7e-5,1.064235 0,3.90625 h 2.28125 1.5 l -15.1875,33.125 c -0.414121,0.902518 -0.02752,1.960879 0.875,2.375 0.902518,0.41412 1.960879,0.02752 2.375,-0.875 l 15.875,-34.625 h 1.9375 v 33.875 c 0,0.992993 0.788257,1.78125 1.78125,1.78125 0.992993,0 1.8125,-0.788257 1.8125,-1.78125 v -33.875 h 1.8125 l 16.03125,34.625 c 0.417368,0.901021 1.473979,1.29237 2.375,0.875 0.901021,-0.417368 1.292368,-1.505229 0.875,-2.40625 L 47.65625,64.34375 h 1.4375 2.4375 z"
           style="fill:#000000" />
        <path
           inkscape:connector-curvature="0"
           id="reel-1"
           d="m 17.763265,10.60917 c -1.849868,0 -3.349902,1.500036 -3.349902,3.349902 0,1.849868 1.500034,3.34863 3.349902,3.34863 1.849865,0 3.348629,-1.498762 3.348629,-3.34863 0,-1.849866 -1.498764,-3.349902 -3.348629,-3.349902 z m -8.0539896,5.851215 c -1.849868,0 -3.3499023,1.500032 -3.3499023,3.349898 0,1.849866 1.5000343,3.349897 3.3499023,3.349897 1.8498656,0 3.3498996,-1.500031 3.3498996,-3.349897 0,-1.849866 -1.500034,-3.349898 -3.3498996,-3.349898 z m 16.1016246,0 c -1.849868,0 -3.3499,1.500032 -3.3499,3.349898 0,1.849866 1.500032,3.349897 3.3499,3.349897 1.849865,0 3.348629,-1.500031 3.348629,-3.349897 0,-1.849866 -1.498764,-3.349898 -3.348629,-3.349898 z m -13.023579,9.460259 c -1.849867,0 -3.3498994,1.500032 -3.3498994,3.349902 0,1.849865 1.5000324,3.348629 3.3498994,3.348629 1.849867,0 3.3499,-1.498764 3.3499,-3.348629 0,-1.84987 -1.500033,-3.349902 -3.3499,-3.349902 z m 9.950613,0 c -1.849866,0 -3.348629,1.500032 -3.348629,3.349902 0,1.849865 1.498763,3.348629 3.348629,3.348629 1.849865,0 3.349901,-1.498764 3.349901,-3.348629 0,-1.84987 -1.500036,-3.349902 -3.349901,-3.349902 z"
           style="fill:#000000">
          <animateTransform
             attributeName="transform"
             attributeType="XML"
             type="rotate"
             dur="2s"
             begin="0"
             from="0 17.66 22.74"
             to="360 17.66 22.74"
             repeatCount="indefinite" />
        </path>
        <path
           inkscape:connector-curvature="0"
           id="reel-2"
           d="m 51.483904,5.8171007 c -1.849872,0 -3.349908,1.5000388 -3.349908,3.3499074 0,1.8498709 1.500036,3.3486359 3.349908,3.3486359 1.849868,0 3.348635,-1.498765 3.348635,-3.3486359 0,-1.8498686 -1.498767,-3.3499074 -3.348635,-3.3499074 z M 43.4299,11.668326 c -1.849872,0 -3.349908,1.500034 -3.349908,3.349904 0,1.849869 1.500036,3.349903 3.349908,3.349903 1.849869,0 3.349906,-1.500034 3.349906,-3.349903 0,-1.84987 -1.500037,-3.349904 -3.349906,-3.349904 z m 16.101654,0 c -1.849871,0 -3.349907,1.500034 -3.349907,3.349904 0,1.849869 1.500036,3.349903 3.349907,3.349903 1.849867,0 3.348635,-1.500034 3.348635,-3.349903 0,-1.84987 -1.498768,-3.349904 -3.348635,-3.349904 z m -13.023602,9.460276 c -1.849871,0 -3.349907,1.500034 -3.349907,3.349908 0,1.849869 1.500036,3.348635 3.349907,3.348635 1.849869,0 3.349905,-1.498766 3.349905,-3.348635 0,-1.849874 -1.500036,-3.349908 -3.349905,-3.349908 z m 9.950632,0 c -1.849872,0 -3.348637,1.500034 -3.348637,3.349908 0,1.849869 1.498765,3.348635 3.348637,3.348635 1.849867,0 3.349905,-1.498766 3.349905,-3.348635 0,-1.849874 -1.500038,-3.349908 -3.349905,-3.349908 z"
           style="fill:#000000">
          <animateTransform
             attributeName="transform"
             attributeType="XML"
             type="rotate"
             dur="3.6s"
             begin="0"
             from="0 51.4 17.7"
             to="360 51.4 17.7"
             repeatCount="indefinite" />
        </path>
      </g>
    </g>
  </g>
</svg>
