<?xml version="1.0" encoding="UTF-8"?>
<!DOCTYPE svg PUBLIC "-//W3C//DTD SVG 1.1//EN" "http://www.w3.org/Graphics/SVG/1.1/DTD/svg11.dtd">
<!-- Creator: CorelDRAW X5 -->
<svg xmlns="http://www.w3.org/2000/svg" xml:space="preserve" width="5.90656in" height="5.93719in" style="shape-rendering:geometricPrecision; text-rendering:geometricPrecision; image-rendering:optimizeQuality; fill-rule:evenodd; clip-rule:evenodd"
viewBox="0 0 5.70712 5.73671"
 xmlns:xlink="http://www.w3.org/1999/xlink">
 <defs>
  <style type="text/css">
   <![CDATA[
    .fil0 {fill:#FEFEFE}
   ]]>
  </style>
 </defs>
 <g id="Layer_x0020_1">
  <metadata id="CorelCorpID_0Corel-Layer"/>
  <g id="_695377528">
   <path id="_695366968" class="fil0" d="M2.64899 0.0241825c-1.50564,0.130921 -2.72122,1.3613 -2.64565,2.91159 0.0771846,1.58255 1.40753,2.78431 2.97145,2.80074 3.89467,0.0410041 3.4825,-6.17072 -0.3258,-5.71233zm0.337562 5.48571c-1.44412,0.00357963 -2.66817,-1.12135 -2.75585,-2.56726 -0.085253,-1.40673 1.01954,-2.57004 2.39601,-2.68973 3.52396,-0.424131 3.99024,5.24834 0.359846,5.25699z"/>
   <g>
    <path id="_695375992" class="fil0" d="M3.8767 4.30619c-0.0516022,0.270127 -0.30466,0.277442 -0.529371,0.279561 -0.360599,0.00331335 -0.72188,0.0378429 -1.08246,0.0166923 -0.145285,-0.0085059 -0.316795,-0.0457478 -0.385246,-0.193536 -0.0413617,-0.089312 -0.035511,-0.212853 -0.0409432,-0.309081 -0.0163803,-0.287287 -0.0106248,-0.575674 -0.00967756,-0.86325 0.00755489,-0.320759 0.00519636,-0.641264 -0.00793149,-0.961814 -0.00706416,-0.171408 -0.00378505,-0.341476 0.0127779,-0.512317 0.0190584,-0.196754 0.020892,-0.49615 0.240589,-0.582559 0.144543,-0.0568328 0.349876,-0.0369604 0.504766,-0.0423964 0.159273,-0.00554253 0.318602,-0.00741414 0.477906,-0.00225962 0.150017,0.00480074 0.313163,0.00388396 0.458558,0.0436936 0.231497,0.0633682 0.285918,0.225665 0.299544,0.447663 0.0441577,0.72008 0.0726844,1.44352 0.0729241,2.16502 7.98855e-005,0.165295 0.0196632,0.351854 -0.011435,0.514581zm0.117268 -0.549532c-0.000460293,-0.244552 -0.00498333,-0.489093 -0.0122187,-0.733528 -0.0136985,-0.465519 -0.0327607,-0.931632 -0.0606445,-1.39654 -0.0193703,-0.322597 -0.143345,-0.517761 -0.478682,-0.569123 -0.375256,-0.0574339 -0.771158,-0.0354692 -1.14843,-0.0126371 -0.169399,0.0102672 -0.342081,0.0267959 -0.444692,0.179605 -0.100458,0.149588 -0.104631,0.364343 -0.121361,0.538014 -0.0468662,0.487435 0.00671419,0.984475 -0.00483117,1.47413 -0.00106134,0.321958 -0.0116861,0.646947 0.0170118,0.968053 0.01794,0.200638 0.0599027,0.354536 0.252777,0.456587 0.133637,0.0707709 0.337977,0.0520017 0.48147,0.0530516 0.256189,0.00190964 0.511998,-0.015281 0.768057,-0.0209642 0.29181,-0.00642127 0.681929,0.00723534 0.73942,-0.365484 0.0284583,-0.184395 0.0124697,-0.385132 0.0121198,-0.571162z"/>
    <path id="_695376040" class="fil0" d="M2.64128 1.40123c0.14056,-0.00677125 0.281121,-0.00998569 0.421853,-0.0098145 0.0510811,6.84733e-005 0.05118,-0.0793453 0,-0.0794176 -0.140732,-0.000178791 -0.281292,0.00303185 -0.421853,0.00981831 -0.0508909,0.00238896 -0.05118,0.081856 0,0.0794138z"/>
    <path id="_695375320" class="fil0" d="M3.23896 1.38326c0.000779835,-0.000768422 0.0015901,-0.00157869 0.00240037,-0.00238896 0.0361805,-0.0361805 -0.019979,-0.0923857 -0.0561633,-0.0561633 -0.000810267,0.000810267 -0.00162053,0.00162053 -0.0024308,0.00240037 -0.0361805,0.036211 0.0199714,0.0923743 0.0561937,0.0561519z"/>
    <path id="_695375344" class="fil0" d="M3.39957 1.38566c0.000821679,-0.000783639 0.00162053,-0.00158249 0.00240037,-0.00239276 0.0362224,-0.0361501 -0.0199409,-0.0923438 -0.0561633,-0.0561633 -0.000798855,0.0008407 -0.00157869,0.00162053 -0.00238896,0.0024308 -0.0361805,0.0361805 0.0199409,0.0923743 0.0561519,0.0561253z"/>
    <path id="_695375416" class="fil0" d="M3.0685 4.42952c-0.0350811,0.040521 -0.178784,0.0316271 -0.230675,0.0322966 -0.0366712,0.000452685 -0.18934,0.00730382 -0.201125,-0.0191307 -0.0454967,-0.10174 0.20836,-0.0819663 0.246454,-0.0815783 0.0350888,-0.000460293 0.258099,-0.0154978 0.185346,0.0684124zm-0.185346 -0.147838c-0.110767,-0.00120209 -0.325769,-0.0260465 -0.339681,0.132016 -0.0128463,0.145856 0.221781,0.129795 0.312284,0.126934 0.0867709,-0.00271991 0.301024,0.00797714 0.306989,-0.12022 0.0076652,-0.165165 -0.169319,-0.140241 -0.279592,-0.138731z"/>
    <path id="_695375512" class="fil0" d="M2.85869 4.13848c-0.296824,0.0157793 -0.592937,0.00614358 -0.889799,0.0122187 -0.0108682,-0.42997 0.0129567,-0.859062 0.0219229,-1.28881 0.00839178,-0.403677 -0.0301473,-0.807452 -0.00900804,-1.2106 0.568062,0.00720491 1.13608,-0.0160608 1.70368,-0.0217136 0.0380902,0.834069 0.0333883,1.67074 0.0716611,2.50495 -0.299826,0.00592294 -0.598521,-0.0119942 -0.898453,0.00395243zm0.900854 -2.56393c0,0 0,-3.04326e-005 0,-3.04326e-005 -0.000711361,-0.0015901 -0.0015901,-0.00289109 -0.00244221,-0.00427197 -0.00568328,-0.0116861 -0.0165173,-0.0206827 -0.0335291,-0.020542 -0.592944,0.00497192 -1.18631,0.0308472 -1.77971,0.0218506 -0.0179704,-0.000289109 -0.0292647,0.00956724 -0.034598,0.0222348 -0.000281501,0.000498333 -0.000563003,0.000920585 -0.000810267,0.00141131 -0.000490725,0.00119828 -0.000673321,0.00243841 -0.00098145,0.00367093 -0.00147978,0.00388396 -0.00304326,0.0076652 -0.00332095,0.0123975 -0.0260883,0.416413 0.0159162,0.833605 0.00723154,1.25062 -0.00924389,0.443239 -0.0346285,0.885706 -0.0211126,1.32923 0.000220636,0.00779454 0.00265144,0.0139457 0.00593435,0.0193817 0.00561481,0.011785 0.0165211,0.0207893 0.0337802,0.020329 0.309891,-0.00783258 0.618922,0.00416546 0.928703,-0.0129148 0.313703,-0.0173313 0.626055,0.00397906 0.939788,-0.00462575 0.00688157,-0.000216832 0.0126676,-0.00200855 0.0176775,-0.00462956 0.0129985,-0.00511267 0.0229157,-0.0166618 0.0220256,-0.0350811 -0.040947,-0.860542 -0.034172,-1.72377 -0.074906,-2.58416 -0.000277697,-0.00565285 -0.00179172,-0.010446 -0.00373179,-0.0148663z"/>
    <path id="_695375536" class="fil0" d="M2.35809 1.85789c-0.0765227,0.0629384 -0.13999,0.139012 -0.18899,0.225133 -0.0253047,0.0444772 0.0432751,0.0845797 0.0685494,0.0401025 0.0459266,-0.0807262 0.104943,-0.150128 0.176604,-0.209072 0.0395053,-0.0325096 -0.0169509,-0.0883914 -0.0561633,-0.0561633z"/>
    <path id="_695375560" class="fil0" d="M2.53067 1.88574c-0.0480492,0.0564829 -0.096087,0.112924 -0.144125,0.169327 -0.0329699,0.0387216 0.0229424,0.0951665 0.0561519,0.0561937 0.0480492,-0.0564752 0.096087,-0.112878 0.144125,-0.169361 0.0329699,-0.0387216 -0.0229424,-0.0951246 -0.0561519,-0.0561595z"/>
   </g>
  </g>
 </g>
</svg>
