<?xml version="1.0" encoding="UTF-8"?>
<!DOCTYPE svg PUBLIC "-//W3C//DTD SVG 1.1//EN" "http://www.w3.org/Graphics/SVG/1.1/DTD/svg11.dtd">
<!-- Creator: CorelDRAW X5 -->
<svg xmlns="http://www.w3.org/2000/svg" xml:space="preserve" width="5.90656in" height="5.93719in" style="shape-rendering:geometricPrecision; text-rendering:geometricPrecision; image-rendering:optimizeQuality; fill-rule:evenodd; clip-rule:evenodd"
viewBox="0 0 5.03176 5.05786"
 xmlns:xlink="http://www.w3.org/1999/xlink">
 <defs>
  <style type="text/css">
   <![CDATA[
    .fil0 {fill:#FEFEFE}
   ]]>
  </style>
 </defs>
 <g id="Layer_x0020_1">
  <metadata id="CorelCorpID_0Corel-Layer"/>
  <g id="_695377672">
   <path id="_664175112" class="fil0" d="M4.00096 3.16081c-0.00411525,0.131933 -0.000872017,0.26574 -0.0116146,0.397391 -0.00774418,0.0955194 -0.0469212,0.09128 -0.134831,0.105638 -0.0906327,0.0148511 -0.182104,0.0262309 -0.273998,0.0282902 -0.337762,0.00757984 -0.679388,-0.00800914 -1.01786,-0.00732494 -0.400209,0.000801585 -0.800307,-0.0108331 -1.2003,-0.0229877 -0.125252,-0.00379663 -0.319222,0.0133385 -0.32703,-0.148001 -0.00443722,-0.090834 -0.00302523,-0.1826 -0.00582239,-0.273552 -0.00593978,-0.195516 -0.0116347,-0.390643 0.000519856,-0.586059 0.0177388,-0.287598 0.00848204,-0.577339 0.0242991,-0.865255 0.979808,-0.0291555 1.96016,-0.025966 2.93971,0.00957542 0.00110344,0.136149 -0.00516502,0.272492 -0.00587605,0.40857 -0.00170379,0.318548 0.0227227,0.634946 0.0127985,0.953715zm-2.79117 -1.76678c0.0406595,-0.00386371 0.0815034,-0.0048464 0.122257,-0.00755301 0.167846,-0.0111886 0.335166,-0.0190871 0.503449,-0.0203448 0.360978,-0.00264288 0.72211,0.00157634 1.08309,0.00315268 0.155209,0.000674136 0.310438,0.00138517 0.465613,0.00199558 0.163731,0.000664074 0.341499,-0.0195432 0.503462,0.00173062 0.0759829,0.00999465 0.0794173,0.0162363 0.0930375,0.0937217 0.0125369,0.0712572 0.00809969,0.155175 0.0112255,0.22765 0.00044607,0.0105682 0.000318622,0.0211833 0.000637243,0.0317884 -0.977585,-0.0354508 -1.95592,-0.0386672 -2.93371,-0.00963914 0.00392743,-0.0552188 0.00861955,-0.11034 0.015106,-0.165331 0.0123189,-0.103918 0.0317615,-0.147267 0.135833,-0.157171zm2.87746 1.05273c-0.00507447,-0.164804 -0.0020593,-0.329716 0.00132144,-0.494541 0.00214986,-0.105256 0.00244165,-0.209519 -0.00315268,-0.314684 -0.00446406,-0.0838914 0.0103133,-0.190824 -0.0124095,-0.271657 -0.022877,-0.081386 -0.0856488,-0.0853034 -0.160766,-0.0888652 -0.194889,-0.00933058 -0.39179,-0.00157634 -0.586951,-0.00237792 -0.435596,-0.0018413 -0.871209,-0.00450095 -1.30677,-0.00517508 -0.229391,-0.000328683 -0.457587,0.00536626 -0.686468,0.0205997 -0.0824358,0.00545681 -0.220191,-0.0104508 -0.287437,0.0472096 -0.044768,0.0383754 -0.0502282,0.0992556 -0.0597097,0.152834 -0.0212101,0.119943 -0.0241448,0.245325 -0.0290281,0.366817 -0.0106956,0.265734 -0.00587605,0.531739 -0.0222767,0.797282 -0.0133284,0.214959 -0.00488329,0.429408 0.00132144,0.644424 0.0034713,0.120432 -0.0350316,0.314949 0.0671118,0.405491 0.10533,0.0933024 0.328251,0.0531897 0.45315,0.0569159 0.229974,0.0069426 0.459965,0.0134727 0.690003,0.0170714 0.431202,0.00677825 0.861784,-0.00874365 1.2926,0.00803597 0.164821,0.00638585 0.346,-0.000127449 0.508725,-0.0280588 0.0967737,-0.0166287 0.126858,-0.0744736 0.136561,-0.166136 0.0401866,-0.378341 0.0157533,-0.766234 0.00418233,-1.14519z"/>
   <path id="_664175688" class="fil0" d="M1.25132 1.56045c0.00488329,-0.0177288 0.0187953,-0.0449894 0.0400792,-0.0445332 0.019607,0.000828416 0.0324893,0.00976659 0.0382748,0.027767 0.00961231,0.0297224 -0.00755301,0.0366079 -0.034713,0.0416187 -0.012718,0.00234103 -0.0234606,0.00221358 -0.0355414,-0.00315268 -0.0126006,-0.00559432 -0.0118628,-0.00799908 -0.00809969,-0.0216998zm0.0430038 0.0977128c0.0589752,-0.00700632 0.120781,-0.0410351 0.110558,-0.109566 -0.00905556,-0.0610714 -0.0505837,-0.102335 -0.113483,-0.105004 -0.0601054,-0.00125436 -0.104045,0.0578281 -0.113302,0.112621 -0.0115341,0.0681012 0.0542562,0.109311 0.116226,0.101949z"/>
   <path id="_664175616" class="fil0" d="M1.55887 1.53429c0.00494702,-0.0218574 0.0325229,-0.0303663 0.0520292,-0.0293367 0.0236987,0.000472901 0.0400155,0.0126912 0.0366448,0.0368964 -0.00376309,0.0268313 -0.0207272,0.0452543 -0.049336,0.0403979 -0.0215992,-0.00363564 -0.0448317,-0.0235881 -0.039338,-0.0479576zm0.038627 0.120399c0.067048,0.00555743 0.114486,-0.0436143 0.121683,-0.10757 0.00746245,-0.0663102 -0.0434466,-0.113104 -0.108281,-0.114486 -0.0582977,-0.00302523 -0.1212,0.0393112 -0.124417,0.100855 -0.00337068,0.0644756 0.0483802,0.115998 0.111014,0.1212z"/>
   <path id="_664175928" class="fil0" d="M1.91637 1.49522c0.0522237,-0.00209619 0.060196,0.0721191 0.00800243,0.0816308 -0.0206366,0.00376309 -0.0521332,-0.00488329 -0.0537464,-0.0278609 -0.00169373,-0.0249061 0.021029,-0.0527771 0.045744,-0.0537699zm0.00687216 0.154263c0.059438,-0.00369936 0.11086,-0.0543367 0.110924,-0.114959 6.37243e-005,-0.0604878 -0.0581468,-0.114003 -0.117803,-0.111625 -0.064925,0.00260599 -0.113329,0.0571506 -0.117602,0.121009 -0.0045915,0.0685472 0.0609406,0.109502 0.12448,0.105574z"/>
   <path id="_664180800" class="fil0" d="M2.33552 0.0213208c-1.32747,0.115432 -2.3992,1.20021 -2.33257,2.56704 0.0680509,1.39528 1.24096,2.45483 2.61982,2.46931 3.43378,0.0361485 3.07039,-5.4405 -0.287246,-5.03635zm0.297616 4.83655c-1.27323,0.00315603 -2.35243,-0.988652 -2.42973,-2.26345 -0.0751645,-1.24027 0.898895,-2.26591 2.11247,-2.37144 3.10695,-0.373941 3.51805,4.62727 0.317263,4.6349z"/>
   <rect id="_665784520" class="fil0" x="1.28476" y="1.97619" width="2.44303" height="0.124484"/>
   <rect id="_695375680" class="fil0" x="1.96943" y="2.27184" width="1.75836" height="0.124484"/>
   <rect id="_695377000" class="fil0" x="2.20284" y="2.53637" width="1.52495" height="0.124484"/>
   <rect id="_664180848" class="fil0" x="1.20697" y="2.86315" width="2.52082" height="0.497937"/>
  </g>
 </g>
</svg>
