<?xml version="1.0" encoding="UTF-8"?>
<!DOCTYPE svg PUBLIC "-//W3C//DTD SVG 1.1//EN" "http://www.w3.org/Graphics/SVG/1.1/DTD/svg11.dtd">
<!-- Creator: CorelDRAW X5 -->
<svg xmlns="http://www.w3.org/2000/svg" xml:space="preserve" width="5.90656in" height="5.93719in" style="shape-rendering:geometricPrecision; text-rendering:geometricPrecision; image-rendering:optimizeQuality; fill-rule:evenodd; clip-rule:evenodd"
viewBox="0 0 5.29242 5.31987"
 xmlns:xlink="http://www.w3.org/1999/xlink">
 <defs>
  <style type="text/css">
   <![CDATA[
    .fil0 {fill:#FEFEFE}
   ]]>
  </style>
 </defs>
 <g id="Layer_x0020_1">
  <metadata id="CorelCorpID_0Corel-Layer"/>
  <g id="_695377912">
   <path id="_695376400" class="fil0" d="M2.45651 0.0224253c-1.39624,0.121411 -2.52349,1.26239 -2.45341,2.70003 0.0715761,1.46756 1.30525,2.582 2.75553,2.59723 3.61167,0.0380211 3.22945,-5.72234 -0.302126,-5.29726zm0.313034 5.0871c-1.33919,0.00331952 -2.47429,-1.03987 -2.5556,-2.38071 -0.0790583,-1.30452 0.945461,-2.38329 2.2219,-2.49429 3.2679,-0.393312 3.7003,4.86698 0.333699,4.875z"/>
   <g>
    <path id="_695376736" class="fil0" d="M2.37995 2.75542c-0.0214799,0.0023212 -0.0421978,0.00282212 -0.0613777,0.00131934 -0.0501421,-0.00396509 -0.215815,-0.0576772 -0.16223,-0.150744 0.0727085,-0.12622 0.195485,0.0669091 0.215582,0.123341 0.00304437,0.00860395 0.00530912,0.017416 0.00802542,0.0260835zm0.531889 0.011292c0.00143928,-0.00402506 0.00268102,-0.00821238 0.00414852,-0.0122374 0.0182768,-0.0546046 0.0472,-0.102743 0.0867839,-0.144517 0.129299,-0.0446143 0.153675,-0.00372873 0.0731918,0.122685 -0.0398343,0.0379294 -0.102496,0.0432738 -0.164124,0.0340701zm0.621577 -0.0058171c-0.0276251,0.132139 -0.0552643,0.214598 -0.140009,0.325825 -0.0687999,0.090375 -0.139078,0.182754 -0.201013,0.277842 -0.0310293,0.0475916 -0.05791,0.0953878 -0.071495,0.151068 -0.0187142,0.0769205 0.0111333,0.148274 -0.0930948,0.188677 -0.048537,0.0188165 -0.117115,0.0220267 -0.185724,0.0210813 -0.0165235,-0.281221 -0.0316854,-0.6093 0.0469425,-0.886821 0.141113,0.0116836 0.347982,-0.0505055 0.31175,-0.217215 -0.0518777,-0.23902 -0.27418,-0.0698511 -0.336274,0.0649688 -0.00941884,0.0204604 -0.0180369,0.0415805 -0.0260165,0.0630145 -0.0304084,-0.00975397 -0.0578077,-0.0214728 -0.0783034,-0.0326626 -0.0175395,-0.00953878 -0.0371815,-0.0221678 -0.0570175,-0.0370227 0.105498,-0.0961745 0.148077,-0.219868 0.0408432,-0.344754 -0.0872284,-0.101611 -0.215649,-0.0325955 -0.243401,0.093885 -0.0197337,0.0898459 0.0228804,0.178429 0.0898565,0.250277 -0.0424871,0.0280131 -0.0914898,0.0495565 -0.140397,0.062817 -0.0553771,-0.189555 -0.148091,-0.307305 -0.303703,-0.228807 -0.090442,0.0455879 -0.0791112,0.171945 -0.0204251,0.239775 0.067664,0.0781905 0.170742,0.0921106 0.272899,0.0743418 0.0281507,0.131246 0.0274946,0.268963 0.0346275,0.402252 0.00864981,0.161507 0.0172608,0.323013 0.0258965,0.48452 -0.0462793,-0.00396156 -0.0919519,-0.0101138 -0.135088,-0.0197337 -0.0689304,-0.0153841 -0.0831116,-0.0134827 -0.111456,-0.0873624 -0.0186895,-0.0488157 -0.0159415,-0.10148 -0.0407515,-0.149527 -0.0597761,-0.115753 -0.182133,-0.198928 -0.254083,-0.309167 -0.079016,-0.12109 -0.157711,-0.268028 -0.187989,-0.410383 -0.0478491,-0.225086 0.0245807,-0.46468 0.147072,-0.651103 0.178263,-0.271263 0.452348,-0.407003 0.772514,-0.432018 0.291854,-0.0227816 0.589849,0.130477 0.751655,0.375882 0.144422,0.219082 0.184489,0.479842 0.132185,0.730352zm-0.445578 1.30148c-0.0242809,0.0512286 -0.0618963,0.072765 -0.112867,0.0645808 -0.0378941,0.00222595 -0.0757705,0.00442368 -0.113672,0.00661436 -0.0643586,0.00370404 -0.128781,0.00759857 -0.193196,0.0104383 -0.0506995,0.00226476 -0.492221,0.0170915 -0.418761,-0.0838594 0.00121704,-0.00170033 0.00206015,-0.00334069 0.00291384,-0.00504102 0.136658,0.0307047 0.331589,0.0231414 0.391196,0.0237376 0.0595786,0.000518565 0.289656,0.0165623 0.441938,-0.018298 0.000853693,0.000582063 0.001531,0.00126996 0.00244819,0.00182733zm-0.360061 0.210478c-0.027103,0.010142 -0.0659284,0.0126008 -0.0944036,0.0130276 -0.012435,0.000197549 -0.0298863,0.0023212 -0.0413089,-0.00317136 -0.0107064,-0.0051786 -0.00239528,0.00166858 -0.0094012,-0.0102549 -0.00654027,-0.0111227 -0.00961992,-0.0309622 -0.0116518,-0.0490662 0.0842863,-0.00226123 0.156236,-0.00824766 0.18668,-0.0102443 -0.00245172,0.0249793 -0.00870273,0.051786 -0.0299145,0.0597091zm0.360459 -0.282463c-0.0291984,0.00366523 -0.0583333,0.00727403 -0.0875353,0.010904 -0.0366594,0.00326308 -0.0735798,0.00458243 -0.11037,0.00546434 -0.0822579,0.00199313 -0.164653,-0.000846637 -0.246879,-0.00156981 -0.0664469,-0.000656144 -0.13277,-0.0016333 -0.199115,-0.00494577 -0.0187601,-0.000917191 -0.268222,-0.00853693 -0.239087,-0.0829422 0.106549,0.050636 0.301699,0.0299145 0.393782,0.033421 0.15673,0.00595821 0.36089,0.035714 0.515327,-0.0151866 -0.00874153,0.0182591 -0.017416,0.0365959 -0.0261223,0.0548551zm-0.416503 -0.171455c0.118265,-0.00100891 0.238233,-0.00670607 0.356071,-0.0164318 0.0293042,-0.00239528 0.0551267,-0.00516802 0.0779436,-0.0118106 0.0720488,0.0730507 -0.138404,0.0883784 -0.189231,0.0904032 -0.0801871,0.00317136 -0.160431,0.00141106 -0.240628,-0.00124526 -0.0736822,-0.00241997 -0.147495,-0.00458243 -0.221075,-0.00916485 -0.0498846,-0.00311139 -0.311658,-0.034631 -0.223805,-0.0908301 0.00917543,0.00248347 0.0191128,0.00467414 0.0300521,0.00661436 0.132474,0.0233354 0.276371,0.0329871 0.410672,0.032465zm-0.0294595 -1.09143c0.0539555,0.0441557 0.11539,0.0780706 0.171952,0.0961745 -0.0815312,0.281239 -0.0624536,0.621407 -0.0458913,0.899577 -0.0352589,-0.00137579 -0.0685812,-0.00274804 -0.0966013,-0.00251522 -0.044512,0.000158745 -0.0911934,-0.000194021 -0.138199,-0.00213423 -0.00291384,-0.120727 0.00844521,-0.585566 -0.065692,-0.908022 0.0655615,-0.0200971 0.126996,-0.0506713 0.174432,-0.0830798zm-0.0708283 -0.262888c0.00978219,-0.0595045 0.0429069,-0.093938 0.0994058,-0.103237 0.0398343,0.0317172 0.0540119,0.0726062 0.0425153,0.122621 0.00206721,0.0564319 -0.0240868,0.106546 -0.0650711,0.148116 -0.0475563,-0.048082 -0.0842545,-0.107523 -0.07685,-0.1675zm-0.47768 -0.737051c-0.360435,0.225893 -0.576405,0.724394 -0.424987,1.13421 0.0491967,0.133056 0.111393,0.262355 0.193224,0.378563 0.0423389,0.0600619 0.0914333,0.112469 0.140136,0.167165 0.0728673,0.081831 0.0933524,0.145177 0.120716,0.244329 0.0113379,0.0410125 0.02354,0.0692302 0.0415805,0.0896518 -0.0313362,0.0351213 -0.0434713,0.0844203 -0.0175854,0.126943 -0.0637553,0.0825824 -0.0354177,0.132968 0.0329695,0.163669 -0.105502,0.157831 0.115873,0.1908 0.31787,0.192081 0.00357352,0.0311845 0.00788784,0.0649794 0.0207849,0.0909959 0.0202664,0.0408185 0.0746664,0.0449459 0.114899,0.0443532 0.0453657,-0.000687893 0.1091,-0.00487169 0.14861,-0.0287998 0.0374108,-0.0227252 0.0461805,-0.0743065 0.049493,-0.118074 0.116003,0.00274804 0.292206,0.0115249 0.350504,-0.0622243 0.035781,-0.0452704 0.0187248,-0.0870343 -0.013973,-0.119055 0.0559416,-0.0302497 0.0778025,-0.0775696 0.0320135,-0.150927 0.0254979,-0.0395486 0.0105406,-0.0888722 -0.0306412,-0.131232 0.00792664,-0.00965872 0.0153488,-0.0205592 0.0219632,-0.0344687 0.0261858,-0.0550244 0.0106429,-0.115122 0.0242914,-0.173032 0.0206544,-0.0877575 0.0783986,-0.132668 0.125666,-0.202946 0.0699887,-0.103939 0.167073,-0.204682 0.221826,-0.316565 0.179462,-0.366622 0.105667,-0.877649 -0.18009,-1.16783 -0.347361,-0.352642 -0.873793,-0.387206 -1.28927,-0.126805z"/>
    <path id="_695376256" class="fil0" d="M4.01037 1.77506c-0.105964,0.0479902 -0.214471,0.0924458 -0.3094,0.16066 -0.050897,0.0365606 -0.00190493,0.121768 0.0495212,0.0847802 0.0949962,-0.0682143 0.203472,-0.11267 0.309435,-0.160649 0.0574832,-0.0260024 0.00762679,-0.11068 -0.0495565,-0.0847907z"/>
    <path id="_695376424" class="fil0" d="M3.2981 1.54543c0.0727262,-0.0931971 0.128537,-0.194631 0.186179,-0.297477 0.0309058,-0.055229 -0.0539096,-0.104785 -0.0848084,-0.0495953 -0.0531971,0.0949857 -0.103572,0.191523 -0.170806,0.277612 -0.0384303,0.0492602 0.0306024,0.119249 0.0694349,0.0694595z"/>
    <path id="_695376760" class="fil0" d="M2.67642 1.33951c0.00762679,-0.110511 0.0111897,-0.221022 0.0106041,-0.33179 -0.000359821,-0.0631803 -0.098531,-0.0633003 -0.0982064,0 0.000596174,0.110768 -0.00293854,0.221279 -0.0106041,0.33179 -0.00435313,0.0630674 0.0938462,0.0627782 0.0982064,0z"/>
    <path id="_695376304" class="fil0" d="M1.98512 1.54426c0.0349908,0.0522763 0.120096,0.00317136 0.0848084,-0.0495565 -0.0663164,-0.0990248 -0.141512,-0.197027 -0.18396,-0.30933 -0.0221572,-0.0585379 -0.117129,-0.03316 -0.0947387,0.0261223 0.0459301,0.121309 0.122202,0.225724 0.193891,0.332764z"/>
    <path id="_695376784" class="fil0" d="M1.57913 1.92659c-0.0969894,-0.071435 -0.201514,-0.127955 -0.313231,-0.172668 -0.0586508,-0.0235118 -0.0841593,0.0714174 -0.0260905,0.0946611 0.103604,0.0415064 0.199937,0.0966578 0.289755,0.162787 0.0509429,0.0374778 0.0999702,-0.0476904 0.0495671,-0.0847802z"/>
    <path id="_695376088" class="fil0" d="M2.32293 1.85212c-0.229065,0.0667679 -0.436075,0.313157 -0.467894,0.548346 -0.00627923,0.0463463 0.0646831,0.0664187 0.0710011,0.0196067 0.0284505,-0.21022 0.209952,-0.436724 0.416472,-0.496927 0.0454009,-0.0132569 0.02608,-0.0843533 -0.0195785,-0.0710258z"/>
    <path id="_695376448" class="fil0" d="M2.36876 1.97857c-0.070285,0.00988096 -0.136249,0.0586614 -0.17893,0.113777 -0.028634,0.037058 0.0231132,0.0895566 0.0520823,0.0521176 0.0361126,-0.0466533 0.0867451,-0.0864875 0.146419,-0.0948657 0.0467062,-0.00655086 0.0268314,-0.0775414 -0.0195714,-0.0710294z"/>
   </g>
  </g>
 </g>
</svg>
