<?xml version="1.0" encoding="UTF-8"?>
<!DOCTYPE svg PUBLIC "-//W3C//DTD SVG 1.1//EN" "http://www.w3.org/Graphics/SVG/1.1/DTD/svg11.dtd">
<!-- Creator: CorelDRAW X5 -->
<svg xmlns="http://www.w3.org/2000/svg" xml:space="preserve" width="5.90656in" height="5.93719in" style="shape-rendering:geometricPrecision; text-rendering:geometricPrecision; image-rendering:optimizeQuality; fill-rule:evenodd; clip-rule:evenodd"
viewBox="0 0 5.40594 5.43397"
 xmlns:xlink="http://www.w3.org/1999/xlink">
 <defs>
  <style type="text/css">
   <![CDATA[
    .fil0 {fill:#FEFEFE}
   ]]>
  </style>
 </defs>
 <g id="Layer_x0020_1">
  <metadata id="CorelCorpID_0Corel-Layer"/>
  <g id="_695378320">
   <g>
    <path id="_695376328" class="fil0" d="M2.41384 1.52831l0.752301 0c0.119544,0 0.217334,0.0977905 0.217334,0.217334l0 0.108665 0.685427 0c0.0909009,0 0.166232,0.0700197 0.174732,0.158791l-0.0727978 0c-0.00810386,-0.0488394 -0.0509437,-0.0865697 -0.101934,-0.0865697l-0.757648 0 0 -0.180887c0,-0.0796802 -0.0654327,-0.145113 -0.145113,-0.145113l-0.752301 0c-0.0796802,0 -0.145113,0.0654327 -0.145113,0.145113l0 0.180887 -0.732569 0c-0.0566874,0 -0.103318,0.0466305 -0.103318,0.103314l0 1.47116c0,0.0566874 0.0466305,0.103318 0.103318,0.103318l2.53274 0c0.0566874,0 0.103318,-0.0466305 0.103318,-0.103318l0 -0.363492 0.0722213 -0.031039 0 0.394531c0,0.0965509 -0.0789883,0.175539 -0.175539,0.175539l-2.53274 0c-0.0965509,0 -0.175539,-0.0789883 -0.175539,-0.175539l0 -1.47116c0,-0.0965473 0.0789883,-0.175536 0.175539,-0.175536l0.660348 0 0 -0.108665c0,-0.119544 0.0977905,-0.217334 0.217334,-0.217334zm1.75838 1.18163l0 -0.337411 0.0722213 0 0 0.297652 -0.0722213 0.039759z"/>
    <path id="_665793664" class="fil0" d="M2.80463 2.05074c0.400484,0 0.725135,0.324652 0.725135,0.725135 0,0.400494 -0.324652,0.725146 -0.725135,0.725146 -0.400494,0 -0.725146,-0.324652 -0.725146,-0.725146 0,-0.400484 0.324652,-0.725135 0.725146,-0.725135zm0 0.0585143c0.368162,0 0.666621,0.298456 0.666621,0.666621 0,0.368176 -0.298459,0.666632 -0.666621,0.666632 -0.368176,0 -0.666632,-0.298456 -0.666632,-0.666632 0,-0.368165 0.298456,-0.666621 0.666632,-0.666621z"/>
    <path id="_695377144" class="fil0" d="M2.80463 2.32346c0.249861,0 0.452411,0.202553 0.452411,0.452415 0,0.249865 -0.20255,0.452422 -0.452411,0.452422 -0.249865,0 -0.452425,-0.202557 -0.452425,-0.452422 0,-0.249861 0.202561,-0.452415 0.452425,-0.452415zm0 0.0574657c0.21812,0 0.394949,0.176826 0.394949,0.394949 0,0.218123 -0.176829,0.39496 -0.394949,0.39496 -0.218123,0 -0.39496,-0.176836 -0.39496,-0.39496 0,-0.218123 0.176836,-0.394949 0.39496,-0.394949z"/>
    <path id="_695377360" class="fil0" d="M1.78064 1.96087c0.0969581,0 0.17555,0.078592 0.17555,0.17555 0,0.0969545 -0.078592,0.175546 -0.17555,0.175546 -0.0969581,0 -0.175546,-0.078592 -0.175546,-0.175546 0,-0.0969581 0.0785884,-0.17555 0.175546,-0.17555zm0 0.039723c0.0750175,0 0.135827,0.0608096 0.135827,0.135827 0,0.0750139 -0.0608096,0.135823 -0.135827,0.135823 -0.0750175,0 -0.135827,-0.0608096 -0.135827,-0.135823 0,-0.0750175 0.0608096,-0.135827 0.135827,-0.135827z"/>
    <path id="_695375968" class="fil0" d="M4.06681 2.04445l0.426312 0 0 0.29674 -0.426312 0 0 -0.29674zm0.034527 0.03083l0.357258 0 0 0.23508 -0.357258 0 0 -0.23508z"/>
    <path id="_695377816" class="fil0" d="M4.36128 2.65435l-0.342719 0.213158 0.127932 0.221579 0.350621 -0.202766 -0.135834 -0.231971zm-0.0125287 0.0374277l-0.29149 0.179986 0.10326 0.178854 0.297875 -0.171594 -0.109645 -0.187246z"/>
    <path id="_695377048" class="fil0" d="M4.49717 2.44066l0.259122 0 0 0.190172 -0.259122 0 0 -0.190172zm0.0250323 0.0245386l0.209061 0 0 0.141095 -0.209061 0 0 -0.141095z"/>
    <path id="_664204464" class="fil0" d="M4.6999 2.76457l0.240331 0 0 0.177622 -0.240331 0 0 -0.177622zm0.0297886 0.0281888l0.180753 0 0 0.121248 -0.180753 0 0 -0.121248z"/>
    <path id="_695377720" class="fil0" d="M4.43448 3.05504l0.232061 0 0 0.170314 -0.232061 0 0 -0.170314zm0.0220163 0.0198471l0.188028 0 0 0.13062 -0.188028 0 0 -0.13062z"/>
   </g>
   <path id="_695378104" class="fil0" d="M2.5092 0.0229063c-1.42618,0.124015 -2.57761,1.28946 -2.50603,2.75794 0.0731113,1.49904 1.33325,2.63738 2.81463,2.65294 3.68913,0.0388366 3.29872,-5.84507 -0.308606,-5.41087zm0.319748 5.19621c-1.36791,0.00339072 -2.52736,-1.06217 -2.61042,-2.43177 -0.080754,-1.3325 0.96574,-2.43441 2.26956,-2.54779 3.33799,-0.401748 3.77966,4.97137 0.340856,4.97956z"/>
  </g>
 </g>
</svg>
